# xmcd
#
# Track frame offsets:
#	150
#	17160
#	33988
#	51204
#	67679
#	83404
#	95612
#	113179
#	130352
#	145370
#	160037
#	176965
#	192010
#	207298
#	221601
#	237941
#
# Disc length: 3487 seconds
#
# Revision: 1
# Processed by: cddbd v1.5.2PL0 Copyright (c) Steve Scherf et al.
# Submitted via: audiograbber 1.83.01
#
DISCID=db0d9d10
DTITLE=Bruno e Marrone - De volta aos bares
DYEAR=2009
DGENRE=sertanejo
TTITLE0=Nao tente me impedir
TTITLE1=Cavalgada
TTITLE2=Flashback de nos dois
TTITLE3=Pode ir embora
TTITLE4=Sou eu
TTITLE5=Onde voce esta?
TTITLE6=Te amo tanto(Tanto cara)
TTITLE7=Duas vezes voce
TTITLE8=Quem ta bebo, quem ta bao?
TTITLE9=Amor nao vai faltar
TTITLE10=Quando voce quizer
TTITLE11=Aline - As paredes azuis
TTITLE12=Desliga
TTITLE13=Fiel ate debaixo d´agua
TTITLE14=Chamego bom
TTITLE15=Favo de mel
EXTD=
EXTT0=
EXTT1=
EXTT2=
EXTT3=
EXTT4=
EXTT5=
EXTT6=
EXTT7=
EXTT8=
EXTT9=
EXTT10=
EXTT11=
EXTT12=
EXTT13=
EXTT14=
EXTT15=
PLAYORDER=
